{
  "accessors": [
    {
      "bufferView": 2,
      "componentType": 5126,
      "count": 1782,
      "max": [
        0.06381142139434814,
        0.06784617900848389,
        0.07098706066608429
      ],
      "min": [
        -0.05731511116027832,
        -0.06951646506786346,
        -0.009147219359874725
      ],
      "type": "VEC3"
    },
    {
      "bufferView": 2,
      "byteOffset": 21384,
      "componentType": 5126,
      "count": 1782,
      "max": [
        0.9982025027275085,
        0.9988718032836914,
        0.8909409046173096
      ],
      "min": [
        -0.9988710284233093,
        -0.9982004761695862,
        -0.8976768255233765
      ],
      "type": "VEC3"
    },
    {
      "bufferView": 3,
      "componentType": 5126,
      "count": 1782,
      "max": [
        0.9982264637947083,
        0.9999315738677979,
        0.994897723197937,
        1.0
      ],
      "min": [
        -0.9949690103530884,
        -0.9905442595481873,
        -0.9929336309432983,
        -1.0
      ],
      "type": "VEC4"
    },
    {
      "bufferView": 1,
      "componentType": 5126,
      "count": 1782,
      "max": [
        0.9936329126358032,
        0.9926698803901672
      ],
      "min": [
        0.014239134266972542,
        0.0084610003978014
      ],
      "type": "VEC2"
    },
    {
      "bufferView": 1,
      "byteOffset": 14256,
      "componentType": 5126,
      "count": 1782,
      "max": [
        0.9936329126358032,
        0.9926698803901672
      ],
      "min": [
        0.014239134266972542,
        0.0084610003978014
      ],
      "type": "VEC2"
    },
    {
      "bufferView": 0,
      "componentType": 5125,
      "count": 2130,
      "type": "SCALAR"
    }
  ],
  "asset": {
    "extras": {
      "author": "sxnneh (https://sketchfab.com/Sxnneh)",
      "license": "CC-BY-4.0 (http://creativecommons.org/licenses/by/4.0/)",
      "source": "https://sketchfab.com/3d-models/ice-spikes-ffc5d65ed44e4527860058cfbdba5e55",
      "title": "Ice spikes"
    },
    "generator": "Sketchfab-16.61.0",
    "version": "2.0"
  },
  "bufferViews": [
    {
      "buffer": 0,
      "byteLength": 8520,
      "name": "floatBufferViews",
      "target": 34963
    },
    {
      "buffer": 0,
      "byteLength": 28512,
      "byteOffset": 8520,
      "byteStride": 8,
      "name": "floatBufferViews",
      "target": 34962
    },
    {
      "buffer": 0,
      "byteLength": 42768,
      "byteOffset": 37032,
      "byteStride": 12,
      "name": "floatBufferViews",
      "target": 34962
    },
    {
      "buffer": 0,
      "byteLength": 28512,
      "byteOffset": 79800,
      "byteStride": 16,
      "name": "floatBufferViews",
      "target": 34962
    }
  ],
  "buffers": [
    {
      "byteLength": 108312,
      "uri": "scene.bin"
    }
  ],
  "images": [
    {
      "uri": "textures/Ice_Wights.001_baseColor.png"
    },
    {
      "uri": "textures/Ice_Wights.001_normal.png"
    }
  ],
  "materials": [
    {
      "doubleSided": true,
      "name": "Ice_Wights.001",
      "normalTexture": {
        "index": 1,
        "texCoord": 1
      },
      "pbrMetallicRoughness": {
        "baseColorTexture": {
          "index": 0
        },
        "metallicFactor": 0.0,
        "roughnessFactor": 0.8308205978495098
      }
    }
  ],
  "meshes": [
    {
      "name": "VFX_Mesh_Object101_Ice_Wights.001_0",
      "primitives": [
        {
          "attributes": {
            "NORMAL": 1,
            "POSITION": 0,
            "TANGENT": 2,
            "TEXCOORD_0": 3,
            "TEXCOORD_1": 4
          },
          "indices": 5,
          "material": 0,
          "mode": 4
        }
      ]
    }
  ],
  "nodes": [
    {
      "children": [
        1
      ],
      "matrix": [
        1.0,
        0.0,
        0.0,
        0.0,
        0.0,
        2.220446049250313e-16,
        -1.0,
        0.0,
        0.0,
        1.0,
        2.220446049250313e-16,
        0.0,
        0.0,
        0.0,
        0.0,
        1.0
      ],
      "name": "Sketchfab_model"
    },
    {
      "children": [
        2
      ],
      "matrix": [
        0.009999999776482582,
        0.0,
        0.0,
        0.0,
        0.0,
        0.0,
        0.009999999776482582,
        0.0,
        0.0,
        -0.009999999776482582,
        0.0,
        0.0,
        0.0,
        0.0,
        0.0,
        1.0
      ],
      "name": "4c474cafae98423ea3372ed6a86fa77c.fbx"
    },
    {
      "children": [
        3
      ],
      "name": "RootNode"
    },
    {
      "children": [
        4
      ],
      "matrix": [
        1.0,
        0.0,
        0.0,
        0.0,
        0.0,
        0.9999999999999867,
        1.6292067073209113e-07,
        0.0,
        0.0,
        -1.6292067073209113e-07,
        0.9999999999999867,
        0.0,
        0.0,
        0.0,
        0.0,
        1.0
      ],
      "name": "spiky vfx"
    },
    {
      "children": [
        5
      ],
      "matrix": [
        1.0,
        0.0,
        0.0,
        0.0,
        0.0,
        1.0,
        1.421085474167178e-14,
        0.0,
        0.0,
        -1.421085474167178e-14,
        1.0,
        0.0,
        0.0,
        0.0,
        0.0,
        1.0
      ],
      "name": "VFX_Effect_Training"
    },
    {
      "children": [
        6
      ],
      "matrix": [
        9.0,
        0.0,
        0.0,
        0.0,
        0.0,
        -1.4662861145264827e-06,
        -8.999999999999881,
        0.0,
        0.0,
        8.999999999999881,
        -1.4662861145264827e-06,
        0.0,
        0.0,
        0.0,
        0.0,
        1.0
      ],
      "name": "VFX_Mesh_Object101"
    },
    {
      "mesh": 0,
      "name": "VFX_Mesh_Object101_Ice_Wights.001_0"
    }
  ],
  "samplers": [
    {
      "magFilter": 9729,
      "minFilter": 9987,
      "wrapS": 10497,
      "wrapT": 10497
    }
  ],
  "scene": 0,
  "scenes": [
    {
      "name": "Sketchfab_Scene",
      "nodes": [
        0
      ]
    }
  ],
  "textures": [
    {
      "sampler": 0,
      "source": 0
    },
    {
      "sampler": 0,
      "source": 1
    }
  ]
}
